<svg width="20" height="18" viewBox="0 0 20 18" fill="none" xmlns="http://www.w3.org/2000/svg">
<path d="M10.35 4V8.28571C10.35 8.51304 10.4396 8.73106 10.599 8.89181C10.7584 9.05255 10.9746 9.14286 11.2 9.14286H16.3867C16.4993 9.14288 16.6108 9.16547 16.7147 9.20932C16.8186 9.25317 16.9128 9.3174 16.9919 9.39829L17.7552 10.1783C17.912 10.3386 18 10.5548 18 10.78V13.4286C18 13.6559 17.9104 13.8739 17.751 14.0347C17.5916 14.1954 17.3754 14.2857 17.15 14.2857H14.6M14.6 14.2857C14.6 15.2325 13.8389 16 12.9 16C11.9611 16 11.2 15.2325 11.2 14.2857M14.6 14.2857C14.6 13.3389 13.8389 12.5714 12.9 12.5714C11.9611 12.5714 11.2 13.3389 11.2 14.2857M3.55 14.2857H1.85C1.62457 14.2857 1.40837 14.1954 1.24896 14.0347C1.08955 13.8739 1 13.6559 1 13.4286V5.71429C1 5.25963 1.17911 4.82359 1.49792 4.5021C1.81673 4.18061 2.24913 4 2.7 4H12.9C13.835 4 14.685 4.68571 14.94 5.54286L15.9396 9.14286M3.55 14.2857C3.55 15.2325 4.31112 16 5.25 16C6.18888 16 6.95 15.2325 6.95 14.2857M3.55 14.2857C3.55 13.3389 4.31112 12.5714 5.25 12.5714C6.18888 12.5714 6.95 13.3389 6.95 14.2857M6.95 14.2857H11.2" stroke="#606060" stroke-width="1.5" stroke-linecap="round" stroke-linejoin="round"/>
</svg>
