<svg width="18" height="18" viewBox="0 0 18 18" fill="none" xmlns="http://www.w3.org/2000/svg">
<path d="M7.9395 4.0605L4.0605 7.9395M13.9395 10.0605L10.0605 13.9395M4.5 9H13.5M4.5 9C4.5 9.82843 3.82843 10.5 3 10.5C2.17157 10.5 1.5 9.82843 1.5 9C1.5 8.17157 2.17157 7.5 3 7.5C3.82843 7.5 4.5 8.17157 4.5 9ZM13.5 9C13.5 9.82843 14.1716 10.5 15 10.5C15.8284 10.5 16.5 9.82843 16.5 9C16.5 8.17157 15.8284 7.5 15 7.5C14.1716 7.5 13.5 8.17157 13.5 9ZM10.5 15C10.5 15.8284 9.82843 16.5 9 16.5C8.17157 16.5 7.5 15.8284 7.5 15C7.5 14.1716 8.17157 13.5 9 13.5C9.82843 13.5 10.5 14.1716 10.5 15ZM10.5 3C10.5 3.82843 9.82843 4.5 9 4.5C8.17157 4.5 7.5 3.82843 7.5 3C7.5 2.17157 8.17157 1.5 9 1.5C9.82843 1.5 10.5 2.17157 10.5 3Z" stroke="#606060" stroke-linecap="round" stroke-linejoin="round"/>
</svg>
